<?xml version="1.0" encoding="UTF-8" standalone="no"?>
<!-- Created with Inkscape (http://www.inkscape.org/) -->

<svg
   xmlns:dc="http://purl.org/dc/elements/1.1/"
   xmlns:cc="http://creativecommons.org/ns#"
   xmlns:rdf="http://www.w3.org/1999/02/22-rdf-syntax-ns#"
   xmlns:svg="http://www.w3.org/2000/svg"
   xmlns="http://www.w3.org/2000/svg"
   xmlns:sodipodi="http://sodipodi.sourceforge.net/DTD/sodipodi-0.dtd"
   xmlns:inkscape="http://www.inkscape.org/namespaces/inkscape"
   id="svg4190"
   version="1.1"
   inkscape:version="0.91 r13725"
   width="263.28705"
   height="246.20509"
   viewBox="0 0 263.28704 246.20509"
   sodipodi:docname="logo.svg"
   inkscape:export-filename="/home/matthias/Projects/sync/lindwurm/logo.svg.png"
   inkscape:export-xdpi="90"
   inkscape:export-ydpi="90">
  <metadata
     id="metadata4196">
    <rdf:RDF>
      <cc:Work
         rdf:about="">
        <dc:format>image/svg+xml</dc:format>
        <dc:type
           rdf:resource="http://purl.org/dc/dcmitype/StillImage" />
        <dc:title></dc:title>
      </cc:Work>
    </rdf:RDF>
  </metadata>
  <defs
     id="defs4194">
    <filter
       inkscape:collect="always"
       style="color-interpolation-filters:sRGB"
       id="filter7271-3"
       x="-0.012036397"
       width="1.0240728"
       y="-0.015045497"
       height="1.030091">
      <feGaussianBlur
         inkscape:collect="always"
         stdDeviation="0.24070541"
         id="feGaussianBlur7273-5" />
    </filter>
    <filter
       inkscape:collect="always"
       style="color-interpolation-filters:sRGB"
       id="filter7271-3-2"
       x="-0.012036397"
       width="1.0240728"
       y="-0.015045497"
       height="1.030091">
      <feGaussianBlur
         inkscape:collect="always"
         stdDeviation="0.24070541"
         id="feGaussianBlur7273-5-9" />
    </filter>
  </defs>
  <sodipodi:namedview
     pagecolor="#ffffff"
     bordercolor="#666666"
     borderopacity="1"
     objecttolerance="10"
     gridtolerance="10"
     guidetolerance="10"
     inkscape:pageopacity="0"
     inkscape:pageshadow="2"
     inkscape:window-width="1920"
     inkscape:window-height="1026"
     id="namedview4192"
     showgrid="false"
     inkscape:zoom="1.8459916"
     inkscape:cx="-22.482016"
     inkscape:cy="121.82318"
     inkscape:window-x="1920"
     inkscape:window-y="27"
     inkscape:window-maximized="1"
     inkscape:current-layer="svg4190"
     showguides="false"
     fit-margin-top="0"
     fit-margin-left="0"
     fit-margin-right="0"
     fit-margin-bottom="0"
     showborder="true" />
  <g
     id="g3376"
     transform="matrix(1.030301,0,0,1.030301,-0.54167055,0.63641215)">
    <rect
       rx="0.14635141"
       y="-1.0834278"
       x="0.050060771"
       height="241.82857"
       width="256.73642"
       id="rect4210"
       style="fill:#0a1b0f;fill-opacity:1;fill-rule:nonzero;stroke:none;stroke-width:1.97898602;stroke-miterlimit:4;stroke-dasharray:none;stroke-opacity:1" />
    <rect
       rx="0.14633913"
       y="-1.0726856"
       x="-6.5005717"
       height="246.19435"
       width="250.15343"
       id="rect4208"
       style="fill:none;fill-opacity:1;stroke:none;stroke-width:2;stroke-miterlimit:4;stroke-dasharray:none;stroke-opacity:1" />
    <path
       inkscape:connector-curvature="0"
       id="path4238"
       d="m 0.59529803,-0.0481651 0,17.3507361"
       style="fill:none;fill-rule:evenodd;stroke:#000000;stroke-width:1.0239054px;stroke-linecap:butt;stroke-linejoin:miter;stroke-opacity:1" />
    <path
       sodipodi:nodetypes="cccssc"
       inkscape:connector-curvature="0"
       id="path6953-8-7"
       d="m 64.641554,49.957446 c 3.51804,2.817136 -2.44028,11.396043 -1.31016,15.192096 1.63845,8.68168 10.4926,22.528363 3.40929,27.19223 C 54.302134,100.41687 35.010355,93.024238 23.635587,84.192374 12.260821,75.36051 13.104041,61.649339 25.51966,53.556459 37.935278,45.46358 57.228764,44.693127 68.628554,53.508673"
       style="fill:#3e1c05;fill-opacity:1;stroke:#5b2400;stroke-width:1.53585804;stroke-miterlimit:4;stroke-dasharray:none;stroke-opacity:0.99607843" />
    <path
       sodipodi:nodetypes="cccssc"
       inkscape:connector-curvature="0"
       id="path6953-8-6"
       d="m 172.63377,172.41422 c 8.92253,7.83003 8.22906,19.96242 -1.54947,27.10834 -14.10123,8.27326 -22.61491,4.40712 -29.99005,-2.47218 -5.18153,-4.52872 -11.03501,-9.24725 -9.86533,-14.86814 0.84895,-4.0796 3.34472,-7.97084 7.44956,-10.98272 9.76051,-7.16167 24.92804,-6.64358 33.88996,1.1576"
       style="fill:#3e1c05;fill-opacity:1;stroke:#5b2400;stroke-width:1.5;stroke-miterlimit:4;stroke-dasharray:none;stroke-opacity:0.99607843;filter:url(#filter7271-3)"
       transform="matrix(1.1905817,0,0,1.377114,-0.96569097,-79.092649)" />
    <path
       sodipodi:nodetypes="csssssc"
       inkscape:connector-curvature="0"
       id="path6953-8-6-1"
       d="m 172.63377,172.41422 c 8.92253,7.83003 8.22906,19.96242 -1.54947,27.10834 -5.37433,3.92743 -9.94576,3.52922 -16.64723,2.88078 -5.49177,-0.5314 -13.2122,-0.57291 -17.23975,-4.09303 -5.12607,-4.48024 -7.09583,-10.37935 -6.00489,-15.94744 0.81217,-4.14526 3.32067,-8.10704 7.48605,-11.16335 9.76051,-7.16167 24.92804,-6.64358 33.88996,1.1576"
       style="fill:#3e1c05;fill-opacity:1;stroke:#5b2400;stroke-width:1.5;stroke-miterlimit:4;stroke-dasharray:none;stroke-opacity:0.99607843;filter:url(#filter7271-3-2)"
       transform="matrix(1.1931564,0,0,1.1548546,-137.62723,-63.394685)" />
    <path
       sodipodi:nodetypes="cssssssssssssssscssssssssccssssssssssssscccssscsssssssssssssssssssssssssccsscccccscc"
       inkscape:connector-curvature="0"
       id="path4242"
       d="m 37.865685,240.13127 c 3.983969,-2.32802 17.792379,-4.85626 33.153019,-6.07013 24.672185,-1.94972 39.658716,-3.6009 49.317336,-5.43364 13.52574,-2.56656 42.55028,-10.57655 48.94154,-13.50655 3.26961,-1.49892 12.14305,-8.17856 20.04124,-14.40293 5.83045,-4.59484 10.56962,-8.37961 15.02124,-12.55063 4.45409,-4.17334 4.71601,-4.63468 4.71601,-8.30693 0,-7.79373 -4.98524,-14.45597 -13.87373,-18.54087 -2.63794,-1.21231 -8.85872,-0.80746 -15.72408,-1.31757 -4.63934,-0.34471 -7.57228,-0.25815 -13.08792,-0.0951 -3.85707,0.11401 -8.97714,0.2654 -16.82692,0.33287 -5.67617,0.0488 -14.44283,-0.64574 -23.36274,-1.13983 -5.64168,-0.31251 -11.34467,-0.54486 -16.36581,-0.45823 -35.484996,0.61215 -55.824446,0.65352 -59.916416,0.12187 -12.387792,-1.60947 -26.019512,-7.96171 -33.583575,-15.64959 -3.824497,-3.88709 -4.750733,-5.45109 -6.086554,-10.27741 l -1.575589,-5.69263 2.389111,-4.59886 c 1.314012,-2.52937 3.902802,-6.12511 5.752866,-7.99051 5.220945,-5.26422 9.864583,-6.59683 27.052661,-7.76344 15.79633,-1.07214 33.26357,-0.73856 67.897056,1.29667 19.34568,1.13686 21.2655,1.1135 37.70578,-0.4586 18.55688,-1.77451 22.72611,-2.55268 24.37738,-4.54998 0.85842,-1.03831 0.83842,-1.48233 -0.10951,-2.43053 -2.90419,-2.905052 -19.69575,-5.393842 -38.47779,-5.703056 -16.8885,-0.278048 -45.865051,-2.869854 -57.234566,-5.119359 -28.84331,-5.575577 -49.43105,-23.152096 -11.7938,-35.623171 15.721685,-5.065565 63.070136,-2.459759 82.357106,6.129359 6.32276,2.815735 7.54392,3.061349 18.6581,3.752721 6.54091,0.406883 12.99979,0.513181 14.35307,0.236197 6.19228,-1.267335 11.72406,-5.873018 10.59655,-8.822527 -0.28217,-0.738128 -1.85912,-1.699791 -3.50434,-2.137029 -1.64523,-0.437239 -6.57788,-1.724328 -10.96143,-2.860198 -9.46725,-2.45316 -13.61924,-4.441358 -16.53223,-7.916524 -2.21581,-2.643446 -2.51434,-3.515871 -3.3713,-9.852481 -1.00274,-7.414605 -6.55497,-12.44658 -14.35866,-13.013211 -4.26781,-0.309888 -5.59798,0.03523 -12.8411,3.331617 -9.32687,4.244723 -16.14833,6.710643 -31.045021,11.222585 C 77.089724,41.080298 46.632934,40.937897 25.336807,33.9266 17.56563,31.368095 14.355119,29.403813 6.411637,22.347634 l -6.38267897,-5.669721 -0.05879,-7.301394 -0.05879,-7.3013951 L 7.652766,9.504311 c 8.771092,8.417367 12.01653,10.034261 24.507908,12.209976 5.770694,1.005124 11.16882,1.223234 23.11253,0.933862 l 15.58333,-0.377554 18.043855,-4.747493 C 130.77997,6.5042229 142.3538,4.7742039 157.31785,7.2962589 167.69822,9.045776 171.15634,12.391432 177.197,26.528895 c 4.56405,10.681666 7.5392,13.751102 15.6267,16.121967 18.5803,5.446843 23.6314,7.946095 26.87273,13.296461 4.76045,7.857942 1.74005,17.698387 -6.8477,22.30982 -3.01928,1.621293 -4.5277,1.807582 -14.04485,1.734606 -13.0249,-0.0998 -20.69695,-1.415229 -45.12475,-7.736615 -22.87107,-5.918534 -28.52258,-7.1423 -40.12133,-8.687794 -11.30871,-1.506855 -14.724141,-1.500373 -19.883701,0.03763 -5.61091,1.672653 -8.46449,4.639369 -8.46449,8.800065 0,3.653455 1.78747,7.671155 3.90431,8.775749 3.20253,1.671098 12.860231,2.149004 44.486021,2.201335 33.18563,0.05491 33.2249,0.05705 41.44086,2.226714 12.99856,3.432667 20.81061,6.738821 26.5707,11.245009 1.66644,1.303674 1.97221,2.226672 1.89306,5.714488 -0.15051,6.63309 -3.06291,10.63162 -10.48398,14.39381 -6.40188,3.2455 -36.35506,3.93532 -76.02407,1.75082 -15.42354,-0.84933 -32.864211,-1.19986 -50.440786,-1.01373 -23.93963,0.25351 -27.248947,0.45049 -30.383104,1.80855 -3.701794,1.60402 -5.914761,4.66879 -5.914761,8.19143 0,1.51764 1.019932,2.67038 4.142255,4.68163 6.413145,4.13109 12.71736,6.33038 22.10335,7.71099 9.30173,1.36821 22.168205,1.04604 60.961056,-1.52648 50.76633,-3.36654 69.81921,-2.45727 94.87225,4.52765 10.07982,2.8103 14.9134,6.52157 23.54413,18.07738 3.92461,3.97698 3.10294,5.95489 2.09357,11.1148 -0.70865,3.62261 -2.05188,7.69804 -2.98496,9.05652 -2.74076,3.99026 -11.54845,13.14543 -21.96879,22.83545 l -9.71296,9.03222 -22.75631,9.04406 -22.75634,9.04405 -27.00047,4.86744 -27.00047,4.86744 -33.692496,-0.025 c -23.59855,-0.0175 -33.256143,-0.28002 -32.235989,-0.87614 z"
       style="fill:#f13f21;fill-opacity:1;stroke:none;stroke-width:1.59985018;stroke-miterlimit:4;stroke-dasharray:none;stroke-opacity:1" />
  </g>
</svg>
